<?xml version="1.0" encoding="utf-8"?>
<!-- Generator: Adobe Illustrator 25.0.1, SVG Export Plug-In . SVG Version: 6.00 Build 0)  -->
<svg version="1.1" id="레이어_1" xmlns="http://www.w3.org/2000/svg" xmlns:xlink="http://www.w3.org/1999/xlink" x="0px"
	 y="0px" viewBox="0 0 640 480" style="enable-background:new 0 0 640 480;" xml:space="preserve">
<style type="text/css">
	.st0{fill:#333333;stroke:#FFFFFF;stroke-miterlimit:10;}
</style>
<g>
	<g>
		<path class="st0" d="M302.9,144.27h-72.74c-9.28,0-16.79,7.62-16.79,16.99v40.3c0,9.37,7.51,16.98,16.79,16.98h25.06l8.55,14.02
			c0,0,0.09,0.18,0.27,0.41c0.51,0.87,1.43,1.45,2.49,1.45c1.06,0,1.97-0.59,2.47-1.43c0.21-0.25,0.29-0.43,0.29-0.43l8.54-14.02
			h25.06c9.28,0,16.8-7.6,16.8-16.98v-40.3C319.7,151.89,312.17,144.27,302.9,144.27"/>
		<g>
			<path class="st0" d="M236.99,173.8c0,0-2.91,0-5.55,2.6v-10.41h-6.5v27.32h6.57v-2.14c0,0,1.55,2.83,5.47,2.83
				c0,0,9.17-0.35,9.17-10.22C246.15,183.78,245.82,173.8,236.99,173.8 M235.55,188.21c-2.31,0-4.18-1.88-4.18-4.21
				c0-2.34,1.87-4.22,4.18-4.22c2.31,0,4.18,1.88,4.18,4.22C239.73,186.33,237.86,188.21,235.55,188.21"/>
			<path class="st0" d="M248.25,165.36v6.33c0,0,2.96-0.13,2.96,5.45v16.17h6.28v-17.67C257.49,175.64,257.76,165.36,248.25,165.36"
				/>
			<path class="st0" d="M272.83,173.89c0,0-10.76,0-10.76,10.12c0,0-0.34,9.99,10.76,9.99c0,0,11-0.02,11-9.99
				C283.84,184.01,284.2,173.89,272.83,173.89 M272.84,188.21c-2.32,0-4.18-1.88-4.18-4.21c0-2.34,1.86-4.22,4.18-4.22
				c2.31,0,4.18,1.88,4.18,4.22C277.02,186.33,275.15,188.21,272.84,188.21"/>
			<path class="st0" d="M301.8,174.53v1.86c0,0-1.87-2.5-5.47-2.5c0,0-9.2-0.4-9.2,10.04c0,0-0.1,9.74,8.95,9.74
				c0,0,3.69,0.14,5.72-2.5v1.53c0,0,0.46,4.8-4.15,4.8h-1.58v5.81h2.54c0,0,9.51,0.1,9.51-10.24v-18.53H301.8z M297.91,188.21
				c-2.31,0-4.18-1.88-4.18-4.21c0-2.34,1.88-4.22,4.18-4.22c2.31,0,4.18,1.88,4.18,4.22C302.09,186.33,300.22,188.21,297.91,188.21
				"/>
		</g>
	</g>
</g>
</svg>
