<?xml version="1.0" encoding="utf-8"?>
<!-- Generator: Adobe Illustrator 25.0.1, SVG Export Plug-In . SVG Version: 6.00 Build 0)  -->
<svg version="1.1" id="_1" xmlns="http://www.w3.org/2000/svg" xmlns:xlink="http://www.w3.org/1999/xlink" x="0px" y="0px"
	 viewBox="0 0 5000 5000" style="enable-background:new 0 0 5000 5000;" xml:space="preserve">
<style type="text/css">
	.st0{fill:none;stroke:#333333;stroke-width:57.3239;stroke-linecap:round;stroke-linejoin:round;stroke-miterlimit:10;}
</style>
<g>
	<g id="unauthorized_5_">
		<g>
			<g>
				<path class="st0" d="M3152.92,1443.33h433.94c135.67,0,245.54,109.87,245.54,245.54v1585.39
					c0,135.67-109.87,245.73-245.54,245.73H1413.14c-135.67,0-245.54-110.06-245.54-245.73V1688.86
					c0-135.67,109.87-245.54,245.54-245.54h433.94"/>
				<g>
					<circle class="st0" cx="2499.99" cy="1473.46" r="653.48"/>
					<g>
						<circle class="st0" cx="2499.99" cy="1175.93" r="195.93"/>
						<path class="st0" d="M2849.18,1862.67h-698.39v-20.63c0-192.85,156.34-349.19,349.19-349.19h0
							c192.85,0,349.19,156.34,349.19,349.19V1862.67z"/>
					</g>
				</g>
				<g>
					<g>
						<path class="st0" d="M3272.48,3238.25H1727.49c-78.51,0-142.15-63.64-142.15-142.15v-80.92
							c0-78.51,63.64-142.15,142.15-142.15h1544.99c78.51,0,142.15,63.64,142.15,142.15v80.92
							C3414.63,3174.61,3350.99,3238.25,3272.48,3238.25z"/>
					</g>
					<line class="st0" x1="1844.55" y1="3055.65" x2="2036.77" y2="3055.65"/>
					<line class="st0" x1="2212.22" y1="3055.65" x2="2440.43" y2="3055.65"/>
				</g>
				<g>
					<g>
						<path class="st0" d="M3272.48,2664.23H1727.49c-78.51,0-142.15-63.64-142.15-142.15v-80.92
							c0-78.51,63.64-142.15,142.15-142.15h1544.99c78.51,0,142.15,63.64,142.15,142.15v80.92
							C3414.63,2600.59,3350.99,2664.23,3272.48,2664.23z"/>
					</g>
					<line class="st0" x1="1799.7" y1="2408.46" x2="1799.7" y2="2535.07"/>
				</g>
			</g>
		</g>
	</g>
</g>
</svg>
